/* XPM */
static char *bad[] = {
/* columns rows colors chars-per-pixel */
"64 64 65 1 ",
"  c black",
". c #020711",
"X c #040812",
"o c #070A14",
"O c #151F3E",
"+ c #15203E",
"@ c #16213F",
"# c #3E3128",
"$ c #3E3129",
"% c #363033",
"& c #182751",
"* c #192851",
"= c #192852",
"- c #1A2952",
"; c #1B2952",
": c #1A2B53",
"> c #1C2A53",
", c #1C2B53",
"< c #1D2B53",
"1 c #182C53",
"2 c #192C53",
"3 c #1A2C53",
"4 c #1C2B54",
"5 c #1D2B54",
"6 c #1D2C54",
"7 c #1E2C54",
"8 c #1E2C55",
"9 c #252D49",
"0 c #2A2853",
"q c #2A3458",
"w c #462352",
"e c #542052",
"r c #552052",
"t c #542152",
"y c #45465E",
"u c #464863",
"i c #545268",
"p c #555368",
"a c #545369",
"s c #555369",
"d c #9F1250",
"f c #C80A4E",
"g c #CB0A4E",
"h c #CC0A4E",
"j c #FF004D",
"k c #9A8076",
"l c #9F8885",
"z c #C19B81",
"x c #C49C82",
"c c #C59D82",
"v c #C8A595",
"b c #CBA796",
"n c #CBA797",
"m c #CCA897",
"M c #CDA998",
"N c #FFCCAA",
"B c #FFCEAB",
"V c #FFCFAD",
"C c #FFD0AC",
"Z c #FFD1AD",
"A c #FFD2AD",
"S c #FFD1AE",
"D c #FFD3AF",
"F c #FFD4AE",
"G c #FFD5B0",
/* pixels */
"NNNNNNCvi**********************************************ivCNNNNNN",
"NNNNNNCvi**********************************************ivCNNNNNN",
"NNNNNNCvi**********************************************ivCNNNNNN",
"NNNNNNCvi**********************************************ivCNNNNNN",
"NNNNNNCvi**********************************************ivCNNNNNN",
"NNNNNCCvi**********************************************ivCCNNNNN",
"CCCCCCCmi**********************************************imCCCCCCC",
"vvvvvvmlu**********************************************ulmvvvvvv",
"iiiiiiiuq**********************************************quiiiiiii",
"****************************************************************",
"****************************************************************",
"****************************************************************",
"****************************************************************",
"****************************************************************",
"****************************************************************",
"****************************************************************",
"****************************************************************",
"****************************************************************",
"****************************************************************",
"****************************************************************",
"****************************************************************",
"****************************************************************",
"****************************************************************",
"***************0wrrrrrrw0**************0wrrrrrrw0***************",
"***************wdhhhhhhdw**************wdhhhhhhdw***************",
"***************rhjjjjjjhr**************rhjjjjjjhr***************",
"***************rhjjjjjjhr**************rhjjjjjjhr***************",
"***************rhjjjjjjhr**************rhjjjjjjhr***************",
"**************1rhjjjjjjhr*************1rhjjjjjjhr***************",
"**************1rhjjjjjjhr*************1rhjjjjjjhr***************",
"**************1rhjjjjjjhr*************1rhjjjjjjhr***************",
"***************wdhhhhhhdw**************wdhhhhhhdw***************",
"***************0wrrrrrrw0**************0wrrrrrrw0***************",
"****************************************************************",
"****************************************************************",
"****************************************************************",
"****************************************************************",
"****************************************************************",
"****************************************************************",
"****************************************************************",
"****************************************************************",
"****************************************************************",
"****************************************************************",
"****************************************************************",
"****************************************************************",
"****************************************************************",
"****************************************************************",
"****************************************************************",
"****************************************************************",
"****************************************************************",
"****************************************************************",
"****************************************************************",
"****************************************************************",
"********************00******************************00**********",
"**********************0**&**&&*&**********************0**&**&&*&",
"iiiiiiiy9@@@&&@@@@&&&@@9yiiiiiiiiiiiiiiy9@@@&&@@@@&&&@@9yiiiiiii",
"vvvvvmMk%.XXXXXXooooXX.%kMvvvvvvvvvvvmMk%.XXXXXXooooXX.%kMvvvvvv",
"CCCCCCGz#              #zGCCCCCCCCCCCCGz#              #zGCCCCCC",
"NNNNNCGz#              #zCCNNNNNNNNNNCGz#              #zCCNNNNN",
"NNNNNNCz#              #zCNNNNNNNNNNNNCz#              #zCNNNNNN",
"NNNNNNCz#              #zCNNNNNNNNNNNNCz#              #zCNNNNNN",
"NNNNNNCz#              #zCCNNNNNNNNNNNCz#              #zCCNNNNN",
"NNNNNNCz#              #zCCNNNNNNNNNNNCz#              #zCCNNNNN",
"NNNNNNCz#              #zCCNNNNNNNNNNNCz#              #zCCNNNNN"
};
