/* XPM */
static char *colec[] = {
/* columns rows colors chars-per-pixel */
"64 64 59 1 ",
"  c #A74D35",
". c #A94F33",
"X c #A84E34",
"o c #A94F35",
"O c #A84E36",
"+ c #A74E39",
"@ c #A84F38",
"# c #AA5034",
"$ c #A95037",
"% c #AA5137",
"& c #AB5236",
"* c #A85038",
"= c #BE6326",
"- c #BE6427",
"; c #BF6529",
": c #BF6629",
"> c #BE652A",
", c #CA7022",
"< c #BF6F52",
"1 c #BE6E53",
"2 c #BE6F53",
"3 c #CF7E48",
"4 c #EA8E09",
"5 c #EA8F0B",
"6 c #EB8F0D",
"7 c #EB900D",
"8 c #EC900C",
"9 c #E08514",
"0 c #FFA100",
"q c #FFA200",
"w c #FFA300",
"e c #FFA400",
"r c #FFA500",
"t c #FFA600",
"y c #FFA700",
"u c #F09E33",
"i c #FFAC26",
"p c #FFAC27",
"a c #FFAD29",
"s c #FFAE28",
"d c #FFB448",
"f c #EAAE8E",
"g c #EBAF8E",
"h c #FABD84",
"j c #F0B38B",
"k c #FFC280",
"l c #FFC281",
"z c #FFC381",
"x c #FFC48B",
"c c #FFCAA0",
"v c #FFCCAA",
"b c #FFCCAB",
"n c #FFCCAC",
"m c #FFCDAC",
"M c #FFCDAD",
"N c #FFCEAC",
"B c #FFCEAD",
"V c #FFCFAD",
"C c #FFCDAE",
/* pixels */
"vvvvvvvvvvvvvvvvvvvvvvvvvvvvvvvvvvvvvvvvvvvvvvvvvvvvvvvvvvvvvvvv",
"vvvvvvvvvvvvvvvvvvvvvvvvvvvvvvvvvvvvvvvvvvvvvvvvvvvvvvvvvvvvvvvv",
"vvvvvvvvvvvvvvvvvvvvvvvvvvvvvvvvvvvvvvvvvvvvvvvvvvvvvvvvvvvvvvvv",
"vvvvvvvvvvvvvvvvvvvvvvvvvvvvvvvvvvvvvvvvvvvvvvvvvvvvvvvvvvvvvvvv",
"vvvvvvvvvvvvvvvvvvvvvvvvvvvvvvvvvvvvvvvvvvvvvvvvvvvvvvvvvvvvvvvv",
"vvvvvvvvvvvvvvvvvvvvvvvvvvvvvvvvvvvvvvvvvvvvvvvvvvvvvvvvvvvvvvvv",
"vvvvvvvvvvvvvvvvvvvvvvvvvvvvvvvvvvvvvvvvvvvvvvvvvvvvvvvvvvvvvvvv",
"vvvvvvvvvvvvvvvvvvvvvvvvvvvvvvvvvvvvvvvvvvvvvvvvvvvvvvvvvvvvvvvv",
"vvvvvvvvvvvvvvvvvvvvvvvvvvvvvvvvvvvvvvvvvvvvvvvvvvvvvvvvvvvvvvvv",
"vvvvvvvvvvvvvvvvvvvvvvvvvvvvvvvvvvvvvvvvvvvvvvvvvvvvvvvvvvvvvvvv",
"vvvvvvvvvvvvvvvvvvvvvvvvvvvvvvvvvvvvvvvvvvvvvvvvvvvvvvvvvvvvvvvv",
"vvvvvvvvvvvvvvvvvvvvvvvvvvvvvvvvvvvvvvvvvvvvvvvvvvvvvvvvvvvvvvvv",
"vvvvvvvvvvvvvvvvvvvvvvvvvvvvvvvvvvvvvvvvvvvvvvvvvvvvvvvvvvvvvvvv",
"vvvvvvvvvvvvvvvvvvvvvvvvvvvvvvvvvvvvvvvvvvvvvvvvvvvvvvvvvvvvvvvv",
"vvvvvvvvvvvvvvvvvvvvvvvvvVvvvvvvvvvvvvvvvvvvvvvvvvvvvvvvvvvvvvvv",
"vvvvvvvvvvvvvvvcxzzzzzzhjggggggggggggggjhzzzzzzxcvvvvvvvvvvvvvvv",
"vvvvvvvvvvvvvvvxdpaaaaau322<<<<<333<2223uaaaappdxvvvvvvvvvvvvvvv",
"vvvvvvvvvvvvvvvzp0000004- O$OOOO$$OOOO -4000000pzvvvvvvvvvvvvvvv",
"vvvvvvvvvvvvvvvzp0000007-O$$$$$$$$$$$  :4000000pzvvvvvvvvvvvvvvv",
"vvvvvvvvvvvvvvvza0000007:$$$$$$$$$$$$$+:7000000azvvvvvvvvvvvvvvv",
"vvvvvvvvvvvvvvvza0000007:@$$$$$$$$$$$$$:7000000azvvvvvvvvvvvvvvv",
"vvvvvvvvvvvvvvvza0000007:+@$$$$$$$$$$**:7000000azvvvvvvvvvvvvvvv",
"vvvvvvvvvvvvvvvza00000y7:+@$$$$$$$$$$@+:7y00000szvvvvvvvvvvvvvvv",
"vvvvvvvvvvvvvvvhu4477779,:::,,,,:::::::,9777744uhvvvvvvvvvvvvvvv",
"vvvvvvvvvvvvvvvj3--::::,9777777777777779,::::--3jvvvvvvvvvvvvvvv",
"vvvvvvvvvvvvvvvg2 O$$@+:70000000000000y7:+@$$O 2gvvvvvvvvvvvvvvv",
"vvvvvvvvvvvvvvvg2OO$$*@:7000000000000007:@$$$OO2gvvvvvvvvvvvvvvv",
"vvvvvvvvvvvvvvvg3O$$$$$:4000000000000007:$$$$$O3gvvvvvvvvvvvvvvv",
"vvvvvvvvvvvvvvvg<O$$$$$:7000000000000007:$$$$$$<gvvvvvvvvvvvvvvv",
"vvvvvvvvvvvvvvvg2O$$$$$:7000000000000007:$$$$$$<gvvvvvvvvvvvvvvv",
"vvvvvvvvvvvvvvvg2O$$$$$:7000000000000007:$$$$$$<gvvvvvvvvvvvvvvv",
"vvvvvvvvvvvvvvvg2O$$$$$:7000000000000007:$$$$$O<gvvvvvvvvvvvvvvv",
"vvvvvvvvvvvvvvvg3O$$$$$,7000000000000007:$$$$$$3gvvvvvvvvvvvvvvv",
"vvvvvvvvvvvvvvvg3O$$$$$,4000000000000007:$$$$$$3gvvvvvvvvvvvvvvv",
"vvvvvvvvvvvvvvvg<O$$$$@,4000000000000007:$$$$$$3gvvvvvvvvvvvvvvv",
"vvvvvvvvvvvvvvvg<O$$$$@:4000000000000007:$$$$$O<gvvvvvvvvvvvvvvv",
"vvvvvvvvvvvvvvvg<O$$$$$:7000000000000007:$$$$O 2gvvvvvvvvvvvvvvv",
"vvvvvvvvvvvvvvvg2OO$$**:7000000000000007:@$$$  2gvvvvvvvvvvvvvvv",
"vvvvvvvvvvvvvvvg2 O$$@+:7y000000000000y7:+@$$O 2gvvvvvvvvvvvvvvv",
"vvvvvvvvvvvvvvvj3--::::,9777777777777779,::::--3jvvvvvvvvvvvvvvv",
"vvvvvvvvvvvvvvvhu4477779,:::,,,,:::::::,9777744uhvvvvvvvvvvvvvvv",
"vvvvvvvvvvvvvvvza00000y7:++@$$$$$$$$$@+:7000000azvvvvvvvvvvvvvvv",
"vvvvvvvvvvvvvvvza0000007:@@$$$$$$$$$$*@:7000000azvvvvvvvvvvvvvvv",
"vvvvvvvvvvvvvvvza0000007:$$$$$$$$$$$$$$:7000000azvvvvvvvvvvvvvvv",
"vvvvvvvvvvvvvvvza0000007:$$$$$$$$$$$$$$:7000000azvvvvvvvvvvvvvvv",
"vvvvvvvvvvvvvvvzp0000004-OO$$$$$$$$$$$O-4000000pzvvvvvvvvvvvvvvv",
"vvvvvvvvvvvvvvvzp0000004- OO$$$$OOOO$O -4000000pzvvvvvvvvvvvvvvv",
"vvvvvvvvvvvvvvvxdppaaaau3222<<<<3333<223uaaaappdxvvvvvvvvvvvvvvv",
"vvvvvvvvvvvvvvvcxzzzzzzhjggggggggggggggjhzzzzzzxcvvvvvvvvvvvvvvv",
"vvvvvvvvvvvvvvvvvvvvvvvvvvvvvvVvvvvvvvvvvvvvvvvvvvvvvvvvvvvvvvvv",
"vvvvvvvvvvvvvvvvvvvvvvvvvvvvvvvvvvvvvvvvvvvvvvvvvvvvvvvvvvvvvvvv",
"vvvvvvvvvvvvvvvvvvvvvvvvvvvvvvvvvvvvvvvvvvvvvvvvvvvvvvvvvvvvvvvv",
"vvvvvvvvvvvvvvvvvvvvvvvvvvvvvvvvvvvvvvvvvvvvvvvvvvvvvvvvvvvvvvvv",
"vvvvvvvvvvvvvvvvvvvvvvvvvvvvvvvvvvvvvvvvvvvvvvvvvvvvvvvvvvvvvvvv",
"vvvvvvvvvvvvvvvvvvvvvvvvvvvvvvvvvvvvvvvvvvvvvvvvvvvvvvvvvvvvvvvv",
"vvvvvvvvvvvvvvvvvvvvvvvvvvvvvvvvvvvvvvvvvvvvvvvvvvvvvvvvvvvvvvvv",
"vvvvvvvvvvvvvvvvvvvvvvvvvvvvvvvvvvvvvvvvvvvvvvvvvvvvvvvvvvvvvvvv",
"vvvvvvvvvvvvvvvvvvvvvvvvvvvvvvvvvvvvvvvvvvvvvvvvvvvvvvvvvvvvvvvv",
"vvvvvvvvvvvvvvvvvvvvvvvvvvvvvvvvvvvvvvvvvvvvvvvvvvvvvvvvvvvvvvvv",
"vvvvvvvvvvvvvvvvvvvvvvvvvvvvvvvvvvvvvvvvvvvvvvvvvvvvvvvvvvvvvvvv",
"vvvvvvvvvvvvvvvvvvvvvvvvvvvvvvvvvvvvvvvvvvvvvvvvvvvvvvvvvvvvvvvv",
"vvvvvvvvvvvvvvvvvvvvvvvvvvvvvvvvvvvvvvvvvvvvvvvvvvvvvvvvvvvvvvvv",
"vvvvvvvvvvvvvvvvvvvvvvvvvvvvvvvvvvvvvvvvvvvvvvvvvvvvvvvvvvvvvvvv",
"vvvvvvvvvvvvvvvvvvvvvvvvvvvvvvvvvvvvvvvvvvvvvvvvvvvvvvvvvvvvvvvv"
};
