/* XPM */
static char *exit[] = {
/* columns rows colors chars-per-pixel */
"64 64 10 1 ",
"  c None",
". c #3F2631",
"X c #763B36",
"o c #262B44",
"O c #52607C",
"+ c #BD6C4A",
"@ c #EAA56C",
"# c #5A6988",
"$ c #8B9BB4",
"% c #C0CBDC",
/* pixels */
"    ........................................................    ",
"    ........................................................    ",
"    ........................................................    ",
"    ........................................................    ",
"................................................................",
"................................................................",
"................................................................",
"................................................................",
"........%%%%$$$$$$$$$$$$$$$$$$$$$$$$$$$$$$$$$$$$$$$$%%%%........",
"........%%%%$$$$$$$$$$$$$$$$$$$$$$$$$$$$$$$$$$$$$$$$%%%%........",
"........%%%%$$$$$$$$$$$$$$$$$$$$$$$$$$$$$$$$$$$$$$$$%%%%........",
"........%%%%$$$$$$$$$$$$$$$$$$$$$$$$$$$$$$$$$$$$$$$$%%%%........",
"........%%%%########################################%%%%........",
"........%%%%########################################%%%%........",
"........%%%%########################################%%%%........",
"........%%%%########################################%%%%........",
"........%%%%########################################%%%%........",
"........%%%%########################################%%%%........",
"........%%%%########################################%%%%........",
"........%%%%########################################%%%%........",
"........%%%%oooo@@@@@@@@oooooooooooooooo@@@@@@@@oooo%%%%........",
"........%%%%oooo@@@@@@@@oooooooooooooooo@@@@@@@@oooo%%%%........",
"........%%%%oooo@@@@@@@@oooooooooooooooo@@@@@@@@oooo%%%%........",
"........%%%%oooo@@@@@@@@oooooooooooooooo@@@@@@@@oooo%%%%........",
"........%%%%oooo@@@@@@@@oooooooooooooooo@@@@@@@@oooo%%%%........",
"........%%%%oooo@@@@@@@@oooooooooooooooo@@@@@@@@oooo%%%%........",
"........%%%%oooo@@@@@@@@oooooooooooooooo@@@@@@@@oooo%%%%........",
"........%%%%oooo@@@@@@@@oooooooooooooooo@@@@@@@@oooo%%%%........",
"........%%%%oooo++++++++@@@@@@@@@@@@@@@@++++++++oooo%%%%........",
"........%%%%oooo++++++++@@@@@@@@@@@@@@@@++++++++oooo%%%%........",
"........%%%%oooo++++++++@@@@@@@@@@@@@@@@++++++++oooo%%%%........",
"........%%%%oooo++++++++@@@@@@@@@@@@@@@@++++++++oooo%%%%........",
"........%%%%oooo++++++++XXXX++++++++XXXX++++++++oooo%%%%........",
"........%%%%oooo++++++++XXXX++++++++XXXX++++++++oooo%%%%........",
"........%%%%oooo++++++++XXXX++++++++XXXX++++++++oooo%%%%........",
"........%%%%oooo++++++++XXXX++++++++XXXX++++++++oooo%%%%........",
"........%%%%oooo++++++++oooooooooooooooo++++++++oooo%%%%........",
"........%%%%oooo++++++++oooooooooooooooo++++++++oooo%%%%........",
"........%%%%oooo++++++++oooooooooooooooo++++++++oooo%%%%........",
"........%%%%oooo++++++++oooooooooooooooo++++++++oooo%%%%........",
"........%%%%oooo++++++++@@@@@@@@@@@@@@@@++++++++oooo%%%%........",
"........%%%%oooo++++++++@@@@@@@@@@@@@@@@++++++++oooo%%%%........",
"........%%%%oooo++++++++@@@@@@@@@@@@@@@@++++++++oooo%%%%........",
"........%%%%oooo++++++++@@@@@@@@@@@@@@@@++++++++oooo%%%%........",
"........%%%%oooo++++++++XXXX++++++++XXXX++++++++oooo%%%%........",
"........%%%%oooo++++++++XXXX++++++++XXXX++++++++oooo%%%%........",
"........%%%%oooo++++++++XXXX++++++++XXXX++++++++oooo%%%%........",
"........%%%%oooo++++++++XXXX++++++++XXXX++++++++oooo%%%%........",
"........%%%%oooo++++++++oooooooooooooooo++++++++oooo%%%%........",
"........%%%%oooo++++++++oooooooooooooooo++++++++oooo%%%%........",
"........%%%%oooo++++++++oooooooooooooooo++++++++oooo%%%%........",
"........%%%%oooo++++++++oooooooooooooooo++++++++oooo%%%%........",
"........%%%%ooooXXXXXXXXXXXXXXXXXXXXXXXXXXXXXXXXoooo%%%%........",
"........%%%%ooooXXXXXXXXXXXXXXXXXXXXXXXXXXXXXXXXoooo%%%%........",
"........%%%%ooooXXXXXXXXXXXXXXXXXXXXXXXXXXXXXXXXoooo%%%%........",
"........%%%%ooooXXXXXXXXXXXXXXXXXXXXXXXXXXXXXXXXoooo%%%%........",
"........$$$$%%%%%%%%%%%%%%%%%%%%%%%%%%%%%%%%%%%%%%%%$$$$........",
"........$$$$%%%%%%%%%%%%%%%%%%%%%%%%%%%%%%%%%%%%%%%%$$$$........",
"........$$$$%%%%%%%%%%%%%%%%%%%%%%%%%%%%%%%%%%%%%%%%$$$$........",
"........$$$$%%%%%%%%%%%%%%%%%%%%%%%%%%%%%%%%%%%%%%%%$$$$........",
"........OOOOOOOOOOOOOOOOOOOOOOOOOOOOOOOOOOOOOOOOOOOOOOOO........",
"........OOOOOOOOOOOOOOOOOOOOOOOOOOOOOOOOOOOOOOOOOOOOOOOO........",
"........OOOOOOOOOOOOOOOOOOOOOOOOOOOOOOOOOOOOOOOOOOOOOOOO........",
"........OOOOOOOOOOOOOOOOOOOOOOOOOOOOOOOOOOOOOOOOOOOOOOOO........"
};
