/* XPM */
static char *player[] = {
/* columns rows colors chars-per-pixel */
"64 64 139 2 ",
"   c #781D4F",
".  c #791E50",
"X  c #791F50",
"o  c #7A2050",
"O  c #7B2151",
"+  c #782251",
"@  c #792251",
"#  c #7B2251",
"$  c #792352",
"%  c #7A2352",
"&  c #7C2252",
"*  c #7C2352",
"=  c #7B2553",
"-  c #7B2653",
";  c #7C2553",
":  c #7E2553",
">  c #7C2653",
",  c #9B184F",
"<  c #9B1950",
"1  c #9C1950",
"2  c #9C1A51",
"3  c #9D1B51",
"4  c #9D1C52",
"5  c #9D2857",
"6  c #B53B61",
"7  c #DF044C",
"8  c #DF064D",
"9  c #DF084E",
"0  c #E0054D",
"q  c #E0074D",
"w  c #E0094E",
"e  c #FF0047",
"r  c #FF0048",
"t  c #FF0049",
"y  c #FF004A",
"u  c #FF004B",
"i  c #FF004C",
"p  c #FF004D",
"a  c #FF0C52",
"s  c #FF0E56",
"d  c #E71354",
"f  c #E02E5F",
"g  c #FF255E",
"h  c #F7285E",
"j  c #FF2D61",
"k  c #FF2E62",
"l  c #FF2F62",
"z  c #FF2C69",
"x  c #E73865",
"c  c #FF3063",
"v  c #FF3163",
"b  c #FF3164",
"n  c #FF3264",
"m  c #FF3771",
"M  c #FF3872",
"N  c #FF3A72",
"B  c #FF3B73",
"V  c #FF3C73",
"C  c #9D4163",
"Z  c #9B4A66",
"A  c #9B4B67",
"S  c #9C4B67",
"D  c #9C4C67",
"F  c #9B4E68",
"G  c #9B4F69",
"H  c #9D4D68",
"J  c #9C4E68",
"K  c #9D4E68",
"L  c #9D4E69",
"P  c #B54767",
"I  c #B56073",
"U  c #B56C78",
"Y  c #F74D6F",
"T  c #FF5774",
"R  c #FF5D80",
"E  c #E07E84",
"W  c #E77C84",
"Q  c #FF7583",
"!  c #E78889",
"~  c #F79D94",
"^  c #FF9993",
"/  c #FF9A93",
"(  c #FF9B94",
")  c #FF9C94",
"_  c #FF9D95",
"`  c #FF9E95",
"'  c #DFA395",
"]  c #DFA495",
"[  c #DFA596",
"{  c #DFA696",
"}  c #DFA897",
"|  c #E7A295",
" . c #E0A495",
".. c #E0A696",
"X. c #E0A797",
"o. c #E7AD9A",
"O. c #FFA799",
"+. c #FFA99D",
"@. c #FF8BA6",
"#. c #FFBCBD",
"$. c #F7C2A5",
"%. c #FFC0A5",
"&. c #FFCBA8",
"*. c #FFCBA9",
"=. c #FFCCA9",
"-. c #FFCCAA",
";. c #FFCDAA",
":. c #FFCDAB",
">. c #FFCEAB",
",. c #FFCFAB",
"<. c #FFCFAC",
"1. c #FFD0AC",
"2. c #FFD1AC",
"3. c #FFD2AD",
"4. c #FFD3AD",
"5. c #FFD3AE",
"6. c #FFD4AE",
"7. c #FFD5AE",
"8. c #FFD6AE",
"9. c #FFC7B0",
"0. c #FFD5B9",
"q. c #FFD6BA",
"w. c #FFB6C3",
"e. c #FFB7C3",
"r. c #FFBAC4",
"t. c #FFBBC5",
"y. c #FFE8D9",
"u. c #FFEBDB",
"i. c #FFECDC",
"p. c #FFF1E8",
"a. c #FFF2E9",
"s. c #FFF5EA",
"d. c #FFF5EB",
"f. c #FFF6EC",
"g. c #FFF7EC",
"h. c #FFF7ED",
"j. c #FFF8ED",
"k. c #FFFAEE",
"l. c #FFFCEF",
/* pixels */
"-.-.-.-.-.-.-.-.-.-.-.-.-.-.-.-.-.-.-.-.-.-.-.-.-.-.-.-.-.-.-.-.-.-.-.-.-.-.-.-.-.-.-.-.-.-.-.-.-.-.-.-.-.-.-.-.-.-.-.-.-.-.-.-.",
"-.-.-.-.-.-.-.-.-.-.-.-.-.-.-.-.-.-.-.-.-.-.-.-.-.-.-.-.-.-.-.-.-.-.-.-.-.-.-.-.-.-.-.-.-.-.-.-.-.-.-.-.-.-.-.-.-.-.-.-.-.-.-.-.",
"-.-.-.-.-.-.-.-.-.-.-.-.-.-.-.-.-.-.-.-.-.-.-.-.-.-.-.-.-.-.-.-.-.-.-.-.-.-.-.-.-.-.-.-.-.-.-.-.-.-.-.-.-.-.-.-.-.-.-.-.-.-.-.-.",
"-.-.-.-.-.-.-.-.-.-.-.-.-.-.-.-.-.-.-.-.-.-.-.-.-.-.-.-.-.-.-.-.-.-.-.-.-.-.-.-.-.-.-.-.-.-.-.-.-.-.-.-.-.-.-.-.-.-.-.-.-.-.-.-.",
"-.-.-.-.-.-.-.-.-.-.-.-.-.-.-.-.-.-.-.-.-.-.-.-.-.-.-.-.-.-.-.-.-.-.-.-.-.-.-.-.-.-.-.-.-.-.-.-.-.-.-.-.-.-.-.-.-.-.-.-.-.-.-.-.",
"-.-.-.-.-.-.-.-.-.-.-.-.-.-.-.-.-.-.-.-.-.-.-.-.-.-.-.-.-.-.-.-.-.-.-.-.-.-.-.-.-.-.-.-.-.-.-.-.-.-.-.-.-.-.-.-.-.-.-.-.-.-.-.-.",
"-.-.-.-.-.-.-.-.2.2.2.2.2.2.2.2.2.2.2.2.2.2.2.2.-.-.-.-.-.-.-.-.2.2.2.2.2.2.2.2.2.2.2.2.2.2.2.2.-.-.-.-.-.-.-.-.-.-.-.-.-.-.-.-.",
"-.-.-.-.-.-.-.%.O.( ( ( ( ( ( ( ( ( ( ( ( ( ( O.%.-.-.-.-.-.-.%.O.( ( ( ( ( ( ( ( ( ( ( ( ( ( O.%.-.-.-.-.-.-.-.-.-.-.-.-.-.-.-.",
"-.-.-.-.-.-.2.O.T k k b b b b b b b b b b k k T O.2.-.-.-.-.2.O.T k k b b b b b b b b b b k k T O.2.-.-.-.-.-.-.-.-.-.-.-.-.-.-.",
"-.-.-.-.-.-.2.( k t t t t t t t t t t t t t t k ( 2.-.-.-.-.2.( k t t t t t t t t t t t t t t k ( 2.-.-.-.-.-.-.-.-.-.-.-.-.-.-.",
"-.-.-.-.-.-.2.( k t t t t t t t t t t t t t t k ( 2.-.-.-.2.2.( k t t t t t t t t t t t t t t k ( 2.-.-.-.-.-.-.-.-.-.-.-.-.-.-.",
"-.-.-.-.-.-.2.( b t t t t t t t t t t t t t t b ( 2.-.-.-.-.2.( b t t t t t t t t t t t t t t b ( 2.-.-.-.-.-.-.-.-.-.-.-.-.-.-.",
"-.-.-.-.-.-.2.( b t t t t t t t t t t t t t t b ( 2.-.-.-.-.2.( b t t t t t t t t t t t t t t b ( 2.-.-.-.-.-.-.-.-.-.-.-.-.-.-.",
"-.-.-.-.-.-.2.( b t t t t t t t t t t t t t t b ( 2.-.-.-.-.2.( b t t t t t t t t t t t t t t b ( 2.-.-.-.-.-.-.-.-.-.-.-.-.-.-.",
"-.-.-.-.-.-.2.( b t t t t t t t t t t t t t t b ( 2.-.-.-.-.2.( b t t t t t t t t t t t t t t b ( 2.-.-.-.-.-.-.-.-.-.-.-.-.-.-.",
"-.-.-.-.-.-.2.( b t t t t t t t t t t t t t t b ( 2.-.-.-.-.2.~ x 8 8 w w w w w w w w w w q 8 x ~ 2.-.-.-.-.-.-.-.-.-.-.-.-.-.-.",
"-.-.-.-.-.-.2.( b t t t t t t t t t t t t t t b ( 2.-.-.-.-.2.| P < < < < < < < < < < < < < < P | 2.-.-.-.-.-.-.-.-.-.-.-.-.-.-.",
"-.-.-.-.-.-.2.( b t t t t t t t t t t t t t t b ( 2.-.-.-.-.2.] K O O O O O O O > > > > O O O K ] 2.-.-.-.-.-.-.-.-.-.-.-.-.-.-.",
"-.-.-.-.-.-.2.( b t t t t t t t t t t t t t t b ( 2.-.-.-.-.2.] K O O O O O O O O O O O O O O K ] 2.-.-.-.-.-.-.-.-.-.-.-.-.-.-.",
"-.-.-.-.-.-.2.( b t t t t t t t t t t t t t t b ( 2.-.-.-.-.2.| K O O O O O O O O O O O O O O K | 2.-.-.-.-.-.-.-.-.-.-.-.-.-.-.",
"-.-.-.-.-.-.2.( b t t t t t t t t t t t t t t b ( 2.2.-.-.-.2.| K O O O O O O O O O O O O O O K | 2.-.-.-.-.-.-.-.-.-.-.-.-.-.-.",
"-.-.-.-.-.-.2.( b t t t t t t t t t t t t t t b ( 2.2.2.-.2.2.] G O O O O O O O O O O O O O O G ] 2.2.-.-.-.-.-.-.-.-.-.-.-.-.-.",
"-.-.-.-.-.-.2.( b t t t t t t t t t t t t t t b ( 2.2.2.2.2.2.} G O O O O O O O O > > > O O O G } 2.2.2.2.2.2.2.-.-.-.-.-.-.-.-.",
"-.-.-.-.-.-.2.( b t t t t t t t t t t t t t t j Q ( ( ( ( ( ( W 6 < < < < < < < < < < < < < < 6 W ( ( ( ( ( ( O.%.-.-.-.-.-.-.-.",
"-.-.-.-.-.-.2.( b t t t t t t t t t t t t t t s g b b b b b b h d w w w w w w w w w w w w w w d h b b b b k k T O.2.-.-.-.-.-.-.",
"-.-.-.-.-.-.2.( b t t t t t t t t t t t t t t t t t t t t t t t t t t t t t t t t t t t t t t t t t t t t t t k ( 2.-.-.-.-.-.-.",
"-.-.-.-.-.-.2.( b t t t t t t t t t t t t t t t t t t t t t t t t t t t t t t t t t t t t t t t t t t t t t t k ( 2.2.-.-.-.-.-.",
"-.-.-.-.-.-.2.( b t t t t t t t t t t t t t t t t t t t t t t t t t t t t t t t t t t t t t t t t t t t t t t b ( 2.-.-.-.-.-.-.",
"-.-.-.-.-.-.2.( b t t t t t t t t t t t t t t t t t t t t t t t t t t t t t t t t t t t t t t t t t t t t t t b ( 2.-.-.-.-.-.-.",
"-.-.-.-.-.-.2.( b t t t t t t t t t t t t t t t t t t t t t t t t t t t t t t t t t t t t t t t t t t t t t t k ( 2.-.-.-.-.-.-.",
"-.-.-.-.-.-.2.( b t t t t t t t t t t t t t t t t t t t t t t t t t t t t t t t t t t t t t t t t t t t t t t k ( 2.-.-.-.-.-.-.",
"-.-.-.-.-.2.2.( b t t t t t t t t t t t t t t s z V V V V V V z s t t t t t t t t t t t t t t s z V V V V V m R +.-.-.-.-.-.-.-.",
"-.-.-.-.-.-.2.( b t t t t t t t t t t t t t t z @.t.t.w.w.t.t.@.z t t t t t t t t t t t t t t z @.t.t.w.w.w.w.#.9.-.-.-.-.-.-.-.",
"-.-.-.-.-.-.2.( b t t t t t t t t t t t t t t V t.l.k.h.h.k.k.t.V t t t t t t t t t t t t t t V t.k.k.h.h.h.h.i.0.-.-.-.-.-.-.-.",
"-.-.-.-.-.-.2.( b t t t t t t t t t t t t t t V t.k.k.h.h.k.k.t.V t t t t t t t t t t t t t t V t.k.k.h.h.h.h.i.0.-.-.-.-.-.-.-.",
"-.-.-.-.-.-.2.( b t t t t t t t t t t t t t t V w.h.h.h.h.h.h.w.V t t t t t t t t t t t t t t V w.h.h.h.h.h.h.i.0.-.-.-.-.-.-.-.",
"-.-.-.-.-.-.2.( b t t t t t t t t t t t t t t V w.h.h.h.h.h.h.w.V t t t t t t t t t t t t t t V w.h.h.h.h.h.h.i.0.-.-.-.-.-.-.-.",
"-.-.-.-.-.-.2.( b t t t t t t t t t t t t t t V t.k.k.h.h.k.k.t.V t t t t t t t t t t t t t t V t.k.k.h.h.h.h.i.0.-.-.-.-.-.-.-.",
"-.-.-.-.-.-.2.( b t t t t t t t t t t t t t t V t.k.k.h.h.k.k.t.V t t t t t t t t t t t t t t V t.k.k.h.h.h.k.i.0.-.-.-.-.-.-.-.",
"-.-.-.-.-.-.2.( b t t t t t t t t t t t t t t z @.t.t.w.w.t.t.@.z t t t t t t t t t t t t t t z @.t.t.w.w.w.w.#.9.-.-.-.-.-.-.-.",
"-.-.-.-.-.2.2.( b t t t t t t t t t t t t t t s z V V V V V V z s t t t t t t t t t t t t t t s z V V V V V m R +.2.-.-.-.-.-.-.",
"-.-.-.-.-.-.2.( b t t t t t t t t t t t t t t t t t t t t t t t t t t t t t t t t t t t t t t t t t t t t t e k ( 2.-.-.-.-.-.-.",
"-.-.-.-.-.-.2.( b t t t t t t t t t t t t t t t t t t t t t t t t t t t t t t t t t t t t t t t t t t t t t t k ( 2.-.-.-.-.-.-.",
"-.-.-.-.-.-.2.( b t t t t t t t t t t t t t t t t t t t t t t t t t t t t t t t t t t t t t t t t t t t t t t b ( 2.-.-.-.-.-.-.",
"-.-.-.-.-.-.2.( b t t t t t t t t t t t t t t t t t t t t t t t t t t t t t t t t t t t t t t t t t t t t t t b ( 2.-.-.-.-.-.-.",
"-.-.-.-.-.2.2.( b t t t t t t t t t t t t t t t t t t t t t t t t t t t t t t t t t t t t t t t t t t t t t t b ( 2.2.-.-.-.-.-.",
"2.2.2.2.2.2.2.( k t t t t t t t t t t t t t t t t t t t t t t t t t t t t t t t t t t t t t t t t t t t t t t k ( 2.2.2.2.2.2.2.",
"| | | | | ] ] ! Y k k b b b b j d w w w w w w w w w w w w w w w w w w w w w w w w w w w w w w d h b b b b b k Y ! ] ] | | | | | ",
"K K K K K K D I ! ( ( ( ( ( ( W 6 < < < < < < < < < < < < < < < < < < < < < < < < < < < < < < 6 W ( ( ( ( ( ( ! I D K K K K K K ",
"O O O O O X   D ] 2.2.2.2.2.2.} G O O O O O O O O O O O > > > > O O O O O O > O > > > > > O O G } 2.2.2.2.2.2.] D   X O O O O O ",
"O O O O O O X K ] 2.2.-.2.2.2.] K O O O O O O O O O O O O O O O O O O O O O O O O O O O O O O G | 2.2.2.2.2.2.] D X O O O O O O ",
"O O O O O O O K | 2.-.-.-.-.2.| K O O O O O O O O O O O O O O O O O O O O O O O O O O O O O O K | 2.-.-.-.-.2.| K O O O O O O O ",
"O O O O O O O K | 2.-.-.-.-.2.| K O O O O O O O O O O O O O O O O O O O O O O O O O O O O O O K | 2.-.-.-.-.2.| K O O O O O O O ",
"O O O O O O X D ] 2.-.-.-.-.2.] K O O O O O > O O O O O O O O O O O O O O O O O O O O O O O O K ] 2.-.-.-.-.2.] D X O O O O O O ",
"O O O O O X   D ] 2.-.-.-.-.2.] K O O O > > > O O O O O O O O O O O O O O O O O O O O O O O O K ] 2.-.-.-.-.2.] D   X O O O O O ",
"K K K K K D D U o.-.-.-.-.-.2.| P < < < < < < 5 C K K K K K K K K K K K K G G C 5 < < < < < < P | 2.-.-.-.-.-.o.U D D K K K K K ",
"| | | | | ] ] o.$.-.-.-.-.-.2.~ x 8 q w w q q f W X.| | | | | | | | | | | | X.W f q q 9 w 8 8 x ~ 2.-.-.-.-.-.$.o.] ] | | | | | ",
"2.2.2.2.2.2.2.-.-.-.-.-.-.-.2.( b t t t t t t b ( 2.2.2.2.2.2.2.2.2.2.2.2.2.2.( b t t t t t t b ( 2.-.-.-.-.-.-.-.2.2.2.2.2.2.2.",
"-.-.-.-.-.-.-.-.-.-.-.-.-.-.2.( b t t t t t t b ( 2.2.-.-.-.-.-.-.-.-.-.-.2.2.( b t t t t t t b ( 2.-.-.-.-.-.-.-.-.-.-.-.-.-.-.",
"-.-.-.-.-.-.-.-.-.-.-.-.-.-.2.( b t t t t t t b ( 2.-.-.-.-.-.-.-.-.-.-.-.-.2.( b t t t t t t b ( 2.-.-.-.-.-.-.-.-.-.-.-.-.-.-.",
"-.-.-.-.-.-.-.-.-.-.-.-.-.-.2.( b t t t t t t b ( 2.-.-.-.-.-.-.-.-.-.-.-.-.2.( b t t t t t t b ( 2.-.-.-.-.-.-.-.-.-.-.-.-.-.-.",
"-.-.-.-.-.-.-.-.-.-.-.-.-.-.2.( b t t t t t t b ( 2.-.-.-.-.-.-.-.-.-.-.-.-.2.( b t t t t t t b ( 2.-.-.-.-.-.-.-.-.-.-.-.-.-.-.",
"-.-.-.-.-.-.-.-.-.-.-.-.-.-.2.( b t t t t t t b ( 2.2.-.-.-.-.-.-.-.-.-.-.-.2.( b t t t t t t b ( 2.-.-.-.-.-.-.-.-.-.-.-.-.-.-.",
"-.-.-.-.-.-.-.-.-.-.-.-.-.-.2.( b t t t t t t b ( 2.2.-.-.-.-.-.-.-.-.-.-.-.2.( b t t t t t t b ( 2.-.-.-.-.-.-.-.-.-.-.-.-.-.-."
};
