/* XPM */
static char *player2[] = {
/* columns rows colors chars-per-pixel */
"64 64 233 2 ",
"   c #6D1D4E",
".  c #731D4E",
"X  c #7B1B4E",
"o  c #721F50",
"O  c #782753",
"+  c #9C0C4A",
"@  c #8E134C",
"#  c #86194E",
"$  c #88164D",
"%  c #9D144E",
"&  c #92184F",
"*  c #8A1E51",
"=  c #971B50",
"-  c #AD0749",
";  c #B9094B",
":  c #A8124E",
">  c #B2124F",
",  c #A41C52",
"<  c #B21550",
"1  c #B71B53",
"2  c #852754",
"3  c #942354",
"4  c #9C2D59",
"5  c #992354",
"6  c #87365B",
"7  c #96305A",
"8  c #AA2658",
"9  c #B72759",
"0  c #A8385F",
"q  c #B3305D",
"w  c #9F3D61",
"e  c #A43E62",
"r  c #B83C63",
"t  c #C30E4E",
"y  c #C10449",
"u  c #D30046",
"i  c #D50A4E",
"p  c #D4014A",
"a  c #C3104F",
"s  c #C91853",
"d  c #DB1252",
"f  c #D61855",
"g  c #D70D50",
"h  c #E40046",
"j  c #E5044C",
"k  c #E7084F",
"l  c #E80A4F",
"z  c #F20046",
"x  c #FF0046",
"c  c #F3034D",
"v  c #FF014C",
"b  c #EB0C51",
"n  c #E70B51",
"m  c #FF0550",
"M  c #F40B51",
"N  c #FE0C54",
"B  c #FB0A54",
"V  c #EB1454",
"C  c #E61B57",
"Z  c #FE1256",
"A  c #FF145A",
"S  c #F51B59",
"D  c #FF1B5B",
"F  c #F31556",
"G  c #C6295B",
"H  c #DA285C",
"J  c #C8325F",
"K  c #EA265C",
"L  c #FF245E",
"P  c #FF285F",
"I  c #F2285D",
"U  c #FF1C61",
"Y  c #D63965",
"T  c #C13964",
"R  c #FF2364",
"E  c #F62E61",
"W  c #FF2B62",
"Q  c #FF2B69",
"!  c #F52F69",
"~  c #E93765",
"^  c #FE3465",
"/  c #FF336E",
"(  c #FF3D69",
")  c #F83564",
"_  c #FF3771",
"`  c #FF3C75",
"'  c #964463",
"]  c #965068",
"[  c #A84465",
"{  c #B34968",
"}  c #A4566C",
"|  c #A6576E",
" . c #B2546D",
".. c #BD526D",
"X. c #B95571",
"o. c #B86977",
"O. c #AF6E78",
"+. c #C94C6B",
"@. c #DA496B",
"#. c #C55872",
"$. c #D65974",
"%. c #C3576F",
"&. c #E9466B",
"*. c #FF426B",
"=. c #FD4B6F",
"-. c #F5476C",
";. c #FF4077",
":. c #FF4E72",
">. c #FF4479",
",. c #FF4B7E",
"<. c #F74A7B",
"1. c #E65775",
"2. c #FF5373",
"3. c #FF5B76",
"4. c #FF5E78",
"5. c #F45A78",
"6. c #ED4E7B",
"7. c #C66B7A",
"8. c #D56778",
"9. c #C9747D",
"0. c #D1707C",
"q. c #E4687A",
"w. c #FD637A",
"e. c #FF6C7E",
"r. c #F56278",
"t. c #FF4E80",
"y. c #FF5383",
"u. c #FF5D89",
"i. c #FF5986",
"p. c #D86F87",
"a. c #CB7E82",
"s. c #DE7C83",
"d. c #CA6D81",
"f. c #FF6E80",
"g. c #FF638D",
"h. c #F8688B",
"j. c #EC7882",
"k. c #FF7582",
"l. c #FF7B85",
"z. c #F97987",
"x. c #FF6B92",
"c. c #FF6790",
"v. c #FF7197",
"b. c #FF7699",
"n. c #FF7C9D",
"m. c #E76F8C",
"M. c #C48283",
"N. c #C98686",
"B. c #D78688",
"V. c #D7958D",
"C. c #DB9B92",
"Z. c #DD8A95",
"A. c #EA8889",
"S. c #FF848A",
"D. c #FF8C8D",
"F. c #FB8187",
"G. c #FF908F",
"H. c #F5938F",
"J. c #FF809F",
"K. c #FF8B95",
"L. c #E99B92",
"P. c #FF9591",
"I. c #FF9B94",
"U. c #F89A94",
"Y. c #E98D9D",
"T. c #E7A999",
"R. c #FEA297",
"E. c #FFA699",
"W. c #F5AD9B",
"Q. c #FFAA9A",
"!. c #FFAE9C",
"~. c #FFAB9B",
"^. c #F5A698",
"/. c #EAB29D",
"(. c #FFB29E",
"). c #FEB39F",
"_. c #F3B49E",
"`. c #FE8AA5",
"'. c #FF8DA8",
"]. c #F986A1",
"[. c #FF93AC",
"{. c #FF99AA",
"}. c #FF9BB1",
"|. c #FFA7A8",
" X c #FEB6A0",
".X c #FEB6A2",
"XX c #F4BDA2",
"oX c #FFB8A1",
"OX c #FFBBA2",
"+X c #FEBAA2",
"@X c #FFBDA3",
"#X c #FFBFA4",
"$X c #FEBBA2",
"%X c #FCB8A9",
"&X c #FEA3B5",
"*X c #FFAEBD",
"=X c #F5AAB3",
"-X c #FBB8BA",
";X c #EBAEA8",
":X c #D4A193",
">X c #FFC1A5",
",X c #FFC6A7",
"<X c #FFC5A7",
"1X c #FEC5A6",
"2X c #FFC7A8",
"3X c #FFC6A9",
"4X c #FFC8A8",
"5X c #FFCAA9",
"6X c #FFCBAA",
"7X c #FFCCAA",
"8X c #FFCDAA",
"9X c #FFCDAB",
"0X c #FFCEAB",
"qX c #FFCFAB",
"wX c #FFCFAC",
"eX c #FFCCAA",
"rX c #F4C4A8",
"tX c #FFD0AC",
"yX c #FFD1AC",
"uX c #FFD2AD",
"iX c #FFD3AD",
"pX c #FFD4AE",
"aX c #FFD4AE",
"sX c #FFD4AE",
"dX c #FFD8AF",
"fX c #FECDB3",
"gX c #FAC8B8",
"hX c #FFDAB1",
"jX c #FED2BE",
"kX c #FFBCC5",
"lX c #FFB3C0",
"zX c #FDC6C7",
"xX c #FDD3C8",
/* pixels */
"7X7X7X7X7X7X7X7X7X7X7X7X7X7X7X7X7X7X7X7X7X7X7X7X7X7X7X7X7X7X7X7X7X7X7X7X7X7X7X7X7X7X7X7X7X7X7X7X7X7X7X7X7X7X7X7X7X7X7X7X7X7X7X7X",
"7X7X7X7X7X7X7X7X7X7X7X7X7X7X7X7X7X7X7X7X7X7X7X7X7X7X7X7X7X7X7X7X7X7X7X7X7X7X7X7X7X7X7X7X7X7X7X7X7X7X7X7X7X7X7X7X7X7X7X7X7X7X7X7X",
"7X7X7X7X7X7X7X7X7X7X7X7X7X7X7X7X7X7X7X7X7X7X7X7X7X7X7X7X7X7X7X7X7X7X7X7X7X7X7X7X7X7X7X7X7X7X7X7X7X7X7X7X7X7X7X7X7X7X7X7X7X7X7X7X",
"7X7X7X7X7X7X7X7X7X7X7X7X7X7X7X7X7X7X7X7X7X7X7X7X7X7X7X7X7X7X7X7X7X7X7X7X7X7X7X7X7X7X7X7X7X7X7X7X7X7X7X7X7X7X7X7X7X7X7X7X7X7X7X7X",
"7X7X7X7X7X7X7X7X7X7X7X7X7X7X7X7X7X7X7X7X7X7X7X7X7X7X7X7X7X7X7X7X7X7X7X7X7X7X7X7X7X7X7X7X7X7X7X7X7X7X7X7X7X7X7X7X7X7X7X7X7X7X7X7X",
"7X7X7X7X7X7X7X7X7X7X7X7X7X7X7X7X7X7X7X7X7X7X7X7X7X7X7X7X7X7X7X7X7X7X7X7X7X7X7X7X7X7X7X7X7X7X7X7X7X7X7X7X7X7X7X7X7X7X7X7X7X7X7X7X",
"7X7X7X7X7X7X7X7X7X7X7X7X7X7X7X7X7X7X7X7X7X7X7X7X7X7X7X7X7X7X7X7X7X7X7X7X7X7X7X7X7X7X7X7X7X7X7X7X7X7X7X7X7X7X7X7X7X7X7X7X7X7X7X7X",
"7X7X7X7X7X7X7X7X7X7X7X7X7X7X7X7X7X7X7X7X7X7X7X7X7X7X7X7X7X7X7X7X7X7X7X7X7X7X7X7X7X7X7X7X7X7X7X7X7X7X7X7X7X7X7X7X7X7X7X7X7X7X7X7X",
"7X7X7X7X7X7X7X7X7X7X7X7X7X7X7X7X7X7X7X7X7X7X7X7X7X7X7X7X7X7X7X7X7X7X7X7X7X7X7X7X7X7X7X7X7X7X7X7X7X7X7X7X7X7X7X7X7X7X7X7X7X7X7X7X",
"7X7X7X7X7X7X7X7X7X7X7X7X7X7X7X7X7X7X7X7X7X7X7X7X7X7X7X7X7X7X7X7X7X7X7X7X7X7X7X7X7X7X7X7X7X7X7X7X7X7X7X7X7X7X7X7X7X7X7X7X7X7X7X7X",
"7X7X7X7X7X7X7X7X7X7X7X7X7X7X7X7X7X7X7X7X7X7X7X7X7X7X7X7X7X7X7X7X7X7X7X7X7X7X7X7X7X7X7X7X7X7X7X7X7X7X7X7X7X7X7X7X7X7X7X7X7X7X7X7X",
"7X7X7X7X7X7X7X7X7X7X7X7X7X7X7X7X7X7X7X7X7X7X7X7X7X7X7X7X7X7X7X7X7X7X7X7X7X7X7X7X7X7X7X7X7X7X7X7X7X7X7X7X7X7X7X7X7X7X7X7X7X7X7X7X",
"7X7X7X7X7X7X7X7X7X7X7X7X7X7X7X7X7X7X7X7X7X7X7X7X7X7X7X7X7X7X7X7X7X7X7X7X7X7X7X7X7X7X7X7X7X7X7X7X7X7X7X7X7X7X7X7X7X7X7X7X7X7X7X7X",
"7X7X7X7X7X7X7X7X7X7X7X7X7X7X7X7X7X7X7X7X7X7X7X7X7X7X7X7X7X7X7X7X7X7X7X7X7X7X7X7X7X7X7X7X7X7X7X7X7X7X7X7X7X7X7X7X7X7X7X7X7X7X7X7X",
"7X7X7X7X7X7X7X7X7X7X7XtXtXtXtXtXtXtXtXtXtXtX7X7X7X7X7X7X7X7X7X7X7X7XtXtXtXtXtXtXtXtXtXtXtXtX7X7X7X7X7X7X7X7X7X7X7X7X7X7X7X7X7X7X",
"7X7X7X7X7X7X7X7XtXtXtXtXtXtXtXtXtXtXtXtXtXtXtXtX7X7X7X7X7X7X7X7XtXtXtXtXtXtXtXtXtXtXtXtXtXtXtXtX7X7X7X7X7X7X7X7X7X7X7X7X7X7X7X7X",
"7X7X7X7X7X7X7XtXtXtXtXtXtXtXtXtXtXtXtXtXtXtXtXtX7X7X7X7X7X7X7X7XtXtXtXtXtXtXtXtXtXtXtXtXtXtXtXtX7X7X7X7X7X7X7X7X7X7X7X7X7X7X7X7X",
"7X7X7X7X7X7X7X7XtXtXtXtXtXtXtXtXtXtXtXtXtXtXtX7X7X7X7X7X7X7X7X7XtXtXtXtXtXtXtXtXtXtXtXtXtXtXtXtX7X7X7X7X7X7X7X7X7X7X7X7X7X7X7X7X",
"7X7X7X7X7X7X7X7X7X7X7X7X7X7X7X7X7X7X7X7X7X7X7X7X7X7X7X7X7X7X7X7X7X7X7X7X7X7X7X7XtXtX7X7X7X7X7X7X7X7X7X7X7X7X7X7X7X7X7X7X7X7X7X7X",
"7X7X7X7X7X7X7X7X7X7X7X7X7X2X>X>X2X2X2X2X2X7X7X7X7X7X7X7X7X7X7X7X7X7X7X2X2X2X2X2X2X2X7X7X2X2X7X7X7X7X7X7X7X7X7X7X7X7X7X7X7X7X7X7X",
"7X7X7X7X7X7X2X>X>X>XoXoXoXoXoXoXoXoXoXoXoXoX>X>X>X2X7X7X7X7X2X>X>XoXoXoXoXoXoXoXoXoXoXoXoXoXoX>X>X2X7X7X7X7X7X7X7X7X7X7X7X7X7X7X",
"7X7X7X7X7X>X>XoXoX).Q.Q.E.E.E.R.E.E.E.Q.Q.Q.).oXoX>X>X7X7X>X>XoXoX).Q.Q.E.E.R.R.E.E.E.E.Q.Q.). XoX>X>X7X7X7X7X7X7X7X7X7X7X7X7X7X",
"tX7X7X7X>X>XoX).Q.R.I.P.G.D.D.D.D.D.D.G.P.I.R.Q.).oX>X>X>X>XoX).Q.R.I.P.D.D.D.D.D.D.D.D.P.I.R.Q.).oX>X2X7X7X7X7X7X7X7X7X7X7X7X7X",
"tXtX7X7X>XoX).E.I.G.S.l.k.k.e.e.e.k.k.k.l.S.G.I.Q.).oX>X>XoX).Q.I.G.S.l.k.k.e.e.e.f.k.k.l.S.D.I.E.).oX>X7X7X7X7X7X7X7X7X7X7X7X7X",
"tXtX7X7X>XoXQ.I.D.l.e.w.3.2.2.2.2.2.2.3.w.e.l.D.I.Q.oXoXoX XQ.I.D.l.f.w.3.2.2.:.:.2.2.3.w.e.l.D.I.Q. X>X7X7XtXtXtX7X7X7X7X7X7X7X",
"tXtX7X7X>X).R.G.l.e.3.=.*.( ^ ^ ^ ^ ( *.=.3.e.F.P.E.).oXoX).E.P.l.e.3.=.*.( ^ ^ ^ ^ ( *.=.2.e.l.D.R.).oX7X7XtXtXtX7X7X7X7X7X7X7X",
"tXtX7X7XoXQ.I.S.k.3.*.^ W L D D D D L W ^ *.3.k.D.R.).oXoX).I.D.k.3.*.^ W L D D D D L W ^ *.2.e.S.I.Q.oX2X7XtXtXtXtX7X7X7X7X7X7X",
"dXtX7X2XoXQ.P.l.w.:.^ L D N N m m N N A L ^ :.e.S.I.Q. X XQ.I.S.e.:.^ L D Z N m m N Z D L ^ =.w.l.P.Q.oX2X7XtXtXtXtX7X7X7X7X7X7X",
"hXtX7X>XoXQ.P.l.4.*.W D N v v v v v v N D W *.w.l.P.Q.). XQ.I.l.w.-.E S M c c c c c c M S E -.3.l.P.Q.oX2X7XtXtXtXtX7X7X7X7X7X7X",
"hXtX7X>XoXE.G.k.3.( L Z v v x x x x v v Z L *.4.l.P.Q.). XQ.U.z.r.&.K C k k k h h k k k C K &.5.z.H.Q.oX7XtXtXtXtXtX7X7X7X7X7X7X",
"hXtX7X>XoXE.D.k.3.( L N v x x x x x v v N L ( 4.l.P.Q. XoXW.U.A.q.&.H f i p u u u u p i f H &.1.j.H.W.oX7XtXtXtXtXtX7X7X7X7X7X7X",
"hXtX7X>XoXE.D.k.3.( L N v x x x x x x v N L ( 4.l.P.Q.oXoXW.L.A.8.@.J s t y y ; ; y y t s J @.8.j.L.W.>X7XtXtXtXtXtX7X7X7X7X7X7X",
"hXtXtX2XoXE.D.k.3.( L N v v x x x x v v N L *.4.l.I.Q.oXoXW.L.B.0.+.T 9 < > - - - - > < 9 q +.8.B.L.W.>X7XtXtXtXtXtX7X7X7X7X7X7X",
"hXtXtX2XoXE.D.k.3.( L N v v x x x x v v Z L *.4.l.P.Q.oXXX/.T.B.8...r 8 , % + + + + % , 8 r ..8.B.L./.rX7XtXtXtXtXtXtX7X7X7X7X7X",
"hXtXtX>XoXE.G.k.3.*.L Z v v x x x x v v Z L *.4.l.P.Q. XXX/.C.B.7. .[ 4 3 & @ @ @ @ & 3 4 e  .7.B.C.T.XX7X7XtXtXtXtX7X7X7X7X7X7X",
"hXtXtX>XoXE.G.k.3.*.L Z v v v x x x v v Z L ( 3.k.G.E.).W.T.C.N.o. .[ 7 3 * # # # @ * 3 4 e  .o.a.V.T.W.>X7X7X7XtX7X7X7X7X7X7X7X",
"hXtX7X>XoXQ.G.k.3.*.L Z v v v x x v v v Z L ( 2.f.S.I.R.^.L.V.a.o. .e 4 3 * # # # & * 3 4 e { o.9.B.L.W. XoX>X2X7X7X7X7X7X7X7X7X",
"hXtXtX2XoXE.G.k.3.*.L Z v v v x x v v v N D ^ =.w.k.S.G.H.A.B.0.#.{ e 4 3 = & @ @ @ = 3 4 0 { %.0.s.A.U.R.Q.).oX>X>X>X7X7X7X7X7X",
"hXtXtX2XoXE.G.k.3.*.L Z m v v v v v v v N D W ( 2.w.k.l.z.j.q.$.+.r q 8 , % % % % % % , 8 q r +.$.q.j.F.D.I.R.Q.).oX>X>X7X7X7XtX",
"hXtXtX2XoXE.G.k.3.*.L Z m v v v v v v v N Z L ^ *.:.3.w.w.5.1.@.Y J G 1 1 < : : : : > 1 1 9 J Y @.1.5.w.k.F.D.I.E.).oX>X7X7XtXtX",
"hXtX7X>XoXE.G.k.3.*.L Z m v v v v v v v m N D L ^ ( *.*.=.-.~ ~ H H s s a a t ; ; t a a s s H H ~ ~ -.=.3.e.l.D.I.Q. X>X7X7XtXtX",
"hXtX7X>XoXE.G.k.3.*.L Z m v v v v v v v v N Z D L L W ^ ^ E I K K C d d i i i i i i i g g d C C C I E ^ *.2.w.l.D.R.).oX7X7XtXtX",
"hXtX7X>XoXE.G.k.3.*.L Z v v v v v v v v v m N Z Z D D D D D S S F V b b k k k k k k k k l b b M F F D L ^ *.3.e.S.I.Q.oX7X7XtXdX",
"hXtX7X>XoXE.G.k.3.*.L Z v v v v v v v v v v N N Z Z Z A A A Z Z N M M c c c c c c c c c c c M m N N Z D W ( 2.e.S.I.Q.oX2X7XtXhX",
"hXtXtX2XoXE.G.k.3.*.L Z v v v v v v v v v m N N Z A A D D A A A N N m v v v v v v v v v v v m m N N A D W ( 2.f.S.I.Q.oX7XtXtXdX",
"hXhXtX7XoXQ.G.l.3.*.P Z v v v v v v v v m N N A D R R R R R R D A N N m v v v v v v v v v m N N A D R Q ` ,.g.z.D.E.).oX7XtXtXdX",
"hXhXtX7XoXQ.P.l.4.*.P Z m v v v v v v v m N A R Q / ` ` ` ` _ Q R A N m v v v v v v v v m N A U R Q ` >.y.g.z.D.I.Q. X>X7XtXtXdX",
"hXhXtX7XoXQ.P.l.4.*.P Z m v v x v v v v N A R / ` ,.y.u.u.y.,.` / R A N v v v v v v v v N A U Q _ >.y.g.c.n.K.{.|. X%X7X7XtXtXdX",
"hXhXtX7XoXQ.P.l.4.*.P Z m v v x x v v v N D Q ;.y.g.b.n.n.b.g.y.;.Q D N v v v x x v v v N D Q ` t.u.v.].`.}.|.%X%X2X2X7XtXtXtXtX",
"hXhXtX7XoXQ.P.l.4.*.P Z v v v x x v v v Z R _ y.c.n.'.[.[.'.n.c.t._ R N m v x x x x v m N U / ,.g.b.'.}.*X*X-XgXfXfXfX7XtXtXtXtX",
"hXhXtX7XoXQ.P.l.4.*.P Z v v v x x x v m A R ;.u.b.[.&X*X*X&X[.b.u.` R A m v x x x x v m A R ` y.c.`.&XlXzXxXxXxXjXjXfX7X7X7X7X7X",
"tXtX7X>X XE.D.k.3.*.L Z v v x x x x v m A Q >.g.J.}.*XkXkX*X}.].g.>.Q A m v x x x x v m A R ;.u.n.[.*XzXxXxXxXxXjXgXfX7X2X>X>X>X",
"rXrXrXXXW.U.F.e.2.( L Z v v v x x x v m A Q >.g.J.}.*XkXkX*X}.].g.>.W A m v x x x x v m A R ;.u.n.[.*XkXxXxXxXxXgXgXrXXXXXXXXX_.",
"/./.T.T.L.A.j.r.-.E L Z v v v x x x v m A R ;.u.b.[.&X*X*X&X[.b.u.;.R A m v x x x x v m A R ` y.v.`.&X*XkXzXzXgX-X;X;XT.T.T.T.T.",
":XV.V.V.B.s.q.1.&.E S N v v v v x v v m Z R _ y.c.n.'.}.}.'.n.c.y.` R Z m v x x x x v m Z R _ ,.g.n.'.}.&X=X=X;X;XT.C.C.V.V.V.V.",
"N.M.M.a.9.8.$.@.~ K S N v v v v v v v v N D Q ;.y.g.b.n.n.b.g.y.>.Q D N v v v x x v v m N D Q ` y.g.v.n.].].Y.Y.Z.B.N.N.M.M.M.M.",
"O.O.O.o.o.%.+.Y Y K F N v v v v v v v v N A R / ;.t.i.u.u.i.t.;./ R A N v v v v v v v v N A R Q ` ,.i.g.h.h.m.p.p.d.7.o.O.o.o.O.",
"} } } } { { r J H C V M v v v v v v v v m N D R Q _ ` >.>.` _ Q R D N m v v v v v v v v m N A R Q _ ` >.<.6.1.$.#.X. . .} } } } ",
"' ' ' ' w 0 q G f d b c v v v v v v v v m N N A D R R W W R R D A N N v v v v v v v v v m N N A D U R Q ! ~ Y Y T r [ ' ' ' ' ' ",
"6 6 6 6 7 4 8 1 s d l c v v v v v v v v v m m N N A A A A A A N N m m v v v v v v v v v v m m N N N A A S C H G 9 8 4 7 6 6 6 6 ",
"O O O 2 3 5 , 1 a i k c v v v v v v v v v v v m m m m m m m m m v v v v v v v v v v v v v v v v m m m m M n d a 1 8 5 3 2 2 O O ",
"O O O O * = , < t i k c v v v v v v v v v v v v v v v v v v v v v v v v v v v v v v v v v v v v v v v v c k i t < , = * 2 O O O ",
"o . . X # & , > t i k c v v v v v v v v v v v v v v v x x x v v v v v v v v v v v v v v v v v v v v x x z k p y > , & # X . . o ",
"    . X # @ % > t i k c v v v v v v v v v v v v x x x x x x x x v v v v v v v v v v v v v v v v x x x x z h u y > + & # X .     "
};
