/* XPM */
static char *wall[] = {
/* columns rows colors chars-per-pixel */
"64 64 30 1 ",
"  c #FF8000",
". c #FF8000",
"X c #FF8000",
"o c #FF8000",
"O c #FF8000",
"+ c #FF8000",
"@ c #FF8000",
"# c #FF8000",
"$ c #FF8000",
"% c #FF8000",
"& c #FF8000",
"* c #FF8000",
"= c #FF8000",
"- c #FF8000",
"; c #FF8000",
": c #FF8000",
"> c #CAC4BF",
", c #CBC4BF",
"< c #CBC5BF",
"1 c #CFC5BD",
"2 c #CEC5BE",
"3 c #D8C6BA",
"4 c #FFCDA6",
"5 c #FFCDA7",
"6 c #F3CAAF",
"7 c #FFCDA8",
"8 c #FFCCA9",
"9 c #FFCCAA",
"0 c #FF8000",
"q c #FF8000",
/* pixels */
"9999999999999999999999999999999999999999999999999999999999999999",
"9999999999999999999999999999999999999999999999999999999999999999",
"9999999999999999999999999999999999999999999999999999999999999999",
"9999999999999999999999999999999999999999999999999999999999999999",
"9999999999999999999999999999999999999999999999999999999999999999",
"9999999999999999999999999999999999999999999999999999999999999999",
"9999999999999999999999999599999999999999999999999999999999999999",
"9999999999999999999999999999999999999999999999999999999999999999",
"9999999999999999999999999999999999999999999999999999999999999999",
"9999999999999999999999999999999999999999999999999999999999999999",
"9999999999999999999999999999999999999999999999999999999999999999",
"9999999999999999999999999999999999999999999999999999999999999999",
"9999999999999999999999999999999999999999999999999999999999999999",
"9999999999999999999999999999999999999999999999999999999999999999",
"9999999999999999999999999999999999999999999999999999999999999999",
"99999999999999999999999>:oo$$oo&q>>>>>>3699999999999999999999999",
"99999999999999999999999>:oo$$$$%&::::::0399999999999999999999999",
"99999999999999999999999>:oo$$$$$oooooo :>99999999999999999999999",
"99999999999999999999999>:oo$$$$$ooooooo:>99999999999999999999999",
"99999999999999999999995>:oo$$$$$$$$$$oo:>99999999999999999999999",
"99999999999999999999999>:oo$$$$$$$$$$oo:>99999999999999999999999",
"99999999999999999999955>:oo$$$$$$$$$$oo:>55999999999999999999999",
"99999999999999999999955>:oo$$$$$$$$$$oo:>55599999999999999999999",
"99999999999999963>>>>>>q&oo$$$$$$$$$$oo&q>>>>>>>>>>>>>>369999999",
"99999999999999930::::::&%$$$$$$$$$$$$$$%&::::::::::::::039999999",
"999999999999999>: oooooo$$$$$$$$$$$$$$$$oooooooooooooo :>9999999",
"999999999999999>:ooooooo$$$$$$$$$$$$$$$$ooooooooooooooo:>9999999",
"999999999999999>:oo$$$$$$$$$$$$$$$$$$$$$$$$$$$$$$$$$$oo:>9999999",
"999999999999999>:oo$$$$$$$$$$$$$$$$$$$$$$$$$$$$$$$$$$oo:>9999999",
"999999999999955>:oo$$$$$$$$$$$$$$$$$$$$$$$$$$$$$ooooooo:>9999999",
"9999999999999551:oo$$$$$$$$$$$$$$$$$$$$$$$$$$$$$oooooo :>9999999",
"999999993>>>>>1q&oo$$$$$$$$$$$$$$$$$$$$$$$$$$$$%&::::::039999999",
"999999990::::::&%$$$$$$$$$$$$$$$$$$$$$$$$$$$$oo&q>>>>>>369999999",
"99999999: oooooo$$$$$$$$$$$$$$$$$$$$$$$$$$$$$oo:>559599999999999",
"99999999:ooooooo$$$$$$$$$$$$$$$$$$$$$$$$$$$$$oo:>559999999999999",
"99999999:oo$$$$$$$$$$$$$$$$$$$$$$$$$$$$$$$$$$oo:>999999999999999",
"99999999:oo$$$$$$$$$$$$$$$$$$$$$$$$$$$$$$$$$$oo:>999999999999999",
"99999999:ooooooooooooooo$$$$$$$$$$$$$$$$ooooooo:>999999999999999",
"99999999: oooooooooooooo$$$$$$$$$$$$$$$$oooooo :>999999999999999",
"999999930::::::::::::::&%$$$$$$$$$$$$$$%&::::::03999999999999999",
"999999963>>>>>>>>>>>>>>q&oo$$$$$$$$$$oo&q1>>>>>36999999999999999",
"99999999999999999999955>:oo$$$$$$$$$$oo:155999999999999999999999",
"99999999999999999999955>:oo$$$$$$$$$$oo:>55999999999999999999999",
"99999999999999999999999>:oo$$$$$$$$$$oo:>99999999999999999999999",
"99999999999999999999999>:oo$$$$$$$$$$oo:>99999999999999999999999",
"99999999999999999999999>:ooooooo$$$$$oo:>99999999999999999999999",
"99999999999999999999999>: oooooo$$$$$oo:>99999999999999999999999",
"9999999999999999999999930::::::&%$$$$oo:>99999999999999999999999",
"9999999999999999999999963>>>>>>q&oo$$oo:>99999999999999999999999",
"9999999999999999999999999999955999999999999999999999999999999999",
"9999999999999999999999999999955999999999999999999999999999999999",
"9999999999999999999999999999999999999999999999999999999999999999",
"9999999999999999999999999999999999999999999999999999999999999999",
"9999999999999999999999999999999999999999999999999999999999999999",
"9999999999999999999999999999999999999999999999999999999999999999",
"9999999999999999999999999999999999999999999999999999999999999999",
"9999999999999999999999999999999999999999999999999999999999999999",
"9999999999999999999999999999999999999999999999999999999999999999",
"9999999999999999999999999999999999999999999999999999999999999999",
"9999999999999999999999999999999999999999999999999999999999999999",
"9999999999999999999999999999999999999999999999999999999999999999",
"9999999999999999999999999999999999999999999999999999999999999999",
"9999999999999999999999999999999999999999999999999999999999999999",
"9999999999999999999999999999999999999999999999999999999999999999"
};
